<!-- Generated by IcoMoon.io -->
<svg version="1.1" xmlns="http://www.w3.org/2000/svg" width="32" height="32" viewBox="0 0 32 32">
<title>a</title>
<path fill="#8c8c8c" d="M0.663 31.814c-0.28-0.057-0.575-0.166-0.655-0.242-0.368-0.35 11.624-24.008 14.901-29.395l0.393-0.646 0.516 0.817c1.282 2.031 4.045 7.321 9.432 18.060l5.815 11.593-2.424-0.086c-3.006-0.107-3.468-0.333-4.524-2.207-0.475-0.843-0.965-1.432-1.349-1.618-0.873-0.426-5.299-0.666-9.57-0.52-5.203 0.178-5.323 0.221-7.304 2.624-0.43 0.522-1.056 1.090-1.391 1.264-0.629 0.326-2.943 0.541-3.84 0.358zM18.902 22.166c0.651-0.248 0.648-0.619-0.022-2.486-1.054-2.934-2.887-6.076-3.545-6.076-0.474 0-1.732 1.886-3.073 4.607-1.23 2.494-1.434 3.408-0.834 3.729 1.071 0.573 6.156 0.727 7.475 0.225z"></path>
</svg>
