<!-- Generated by IcoMoon.io -->
<svg version="1.1" xmlns="http://www.w3.org/2000/svg" width="32" height="32" viewBox="0 0 32 32">
<title>a1</title>
<path fill="#8c8c8c" d="M0.947 31.828c-1.216-0.333-1.237-0.652-0.199-3.022 3.006-6.857 13.359-26.289 14.521-27.254 0.236-0.196 0.541 0.22 1.727 2.358 3.148 5.674 9.561 18.115 12.211 23.688 1.685 3.544 1.851 3.992 1.54 4.171-0.192 0.11-1.22 0.201-2.285 0.203-2.408 0.004-3.236-0.374-4.519-2.062-0.488-0.642-1.186-1.342-1.551-1.555-0.956-0.558-4.604-0.817-9.483-0.673-5.043 0.149-5.367 0.258-6.441 2.157-0.437 0.773-1.004 1.466-1.377 1.684-0.81 0.473-2.953 0.631-4.145 0.305zM17.71 22.293c1-0.278 1.088-0.705 0.565-2.74-0.468-1.82-2.155-5.379-2.701-5.699-0.277-0.162-0.464-0.097-0.853 0.299-1.013 1.030-3.175 6.038-3.175 7.354 0 0.424 0.135 0.608 0.56 0.764 0.748 0.273 4.645 0.289 5.603 0.023z"></path>
</svg>
