<!-- Generated by IcoMoon.io -->
<svg version="1.1" xmlns="http://www.w3.org/2000/svg" width="32" height="32" viewBox="0 0 32 32">
<title>a2</title>
<path fill="#8c8c8c" d="M0.481 31.601l-0.481-0.392 0.479-1.391c1.668-4.847 11.635-24.505 14.236-28.078l0.732-1.005 0.402 0.496c2.394 2.952 14.387 26.477 14.961 29.346 0.085 0.424-0.017 0.641-0.472 1.001-0.501 0.397-0.751 0.446-1.846 0.36-1.924-0.151-2.631-0.614-3.939-2.576-0.64-0.96-1.39-1.831-1.732-2.011-1.554-0.819-12.529-0.781-14.158 0.049-0.392 0.2-1.457 1.084-2.366 1.965-2.453 2.378-4.62 3.212-5.815 2.237zM17.423 21.603c1.706-0.247 1.909-0.505 1.496-1.907-0.323-1.097-2.070-4.873-2.982-6.445l-0.527-0.908-1.749 3.563c-0.962 1.96-1.803 3.895-1.869 4.302-0.103 0.633-0.051 0.777 0.362 0.998 0.432 0.232 2.066 0.5 3.437 0.564 0.28 0.013 1.104-0.062 1.831-0.167z"></path>
</svg>
