<!-- Generated by IcoMoon.io -->
<svg version="1.1" xmlns="http://www.w3.org/2000/svg" width="32" height="32" viewBox="0 0 32 32">
<title>d</title>
<path fill="#8c8c8c" d="M0.153 20.301c0.084-6.434 0.21-13.396 0.28-15.47l0.126-3.771 2.344-0.163c3.351-0.233 9.98-0.029 11.72 0.361 3.782 0.847 6.202 2.007 8.32 3.987 2.534 2.369 3.781 5.116 4.239 9.341 0.29 2.677 0.026 5.97-0.633 7.873-1.053 3.043-3.44 5.925-6.017 7.266-3.060 1.591-5.724 1.997-14.138 2.155l-6.394 0.12zM13.778 26.539c3.576-0.539 5.391-1.747 6.662-4.435 0.948-2.004 1.286-3.919 1.158-6.551-0.265-5.422-2.283-7.741-8.011-9.207-2.088-0.534-5.513-0.762-6.655-0.442-0.791 0.221-1.136 1.047-1.401 3.345-0.26 2.258-0.367 15.365-0.132 16.202 0.35 1.248 4.093 1.734 8.379 1.088z"></path>
</svg>
