<!-- Generated by IcoMoon.io -->
<svg version="1.1" xmlns="http://www.w3.org/2000/svg" width="32" height="32" viewBox="0 0 32 32">
<title>g</title>
<path fill="#8c8c8c" d="M12.803 31.838c-2.833-0.484-6.439-2.545-8.713-4.981-2.579-2.762-3.873-5.973-4.068-10.101-0.222-4.693 1.227-8.572 4.389-11.746 4.169-4.186 10.481-5.656 16.138-3.757 3.056 1.026 6.474 2.999 7.252 4.187 0.225 0.343 0.288 0.696 0.194 1.073-0.166 0.662-1.681 2.137-2.577 2.508-0.564 0.234-0.735 0.205-1.678-0.279-0.578-0.296-1.639-0.906-2.358-1.356-1.97-1.23-3.324-1.681-5.385-1.794-3.208-0.175-5.564 0.83-7.911 3.372-2.694 2.919-3.545 5.874-2.711 9.423 0.689 2.934 2.707 5.832 4.993 7.171 3.311 1.94 7.528 1.926 10.585-0.035 1.253-0.804 4.080-3.772 4.080-4.284 0-0.593-1.005-0.843-6.18-1.536-2.428-0.325-3.861-0.613-4.288-0.862-0.596-0.347-0.645-0.462-0.702-1.643l-0.061-1.27 0.774-0.339c0.665-0.292 1.869-0.351 8.57-0.423l7.796-0.084v2.377c0 2.886-0.187 3.736-1.368 6.209-0.785 1.644-1.184 2.187-2.781 3.783-1.331 1.331-2.275 2.076-3.3 2.605-2.954 1.524-7.632 2.303-10.691 1.781z"></path>
</svg>
