<!-- Generated by IcoMoon.io -->
<svg version="1.1" xmlns="http://www.w3.org/2000/svg" width="32" height="32" viewBox="0 0 32 32">
<title>logo2</title>
<path fill="#8c8c8c" d="M26.8 31.774c-0.772-0.306-1.544-1.041-1.942-1.849-0.408-0.829-0.414-2.464-0.012-3.28 0.663-1.345 1.707-2.018 3.262-2.103 0.968-0.053 1.089-0.031 1.84 0.339 1.355 0.667 2.063 1.819 2.067 3.365 0.003 1.027-0.164 1.525-0.804 2.396-0.648 0.882-1.502 1.3-2.76 1.35-0.785 0.031-1.144-0.016-1.651-0.217zM28.857 30.631c1.151-0.29 2.036-1.611 1.843-2.752-0.176-1.039-1.413-2.111-2.433-2.108-0.71 0.002-1.644 0.509-2.071 1.126-0.324 0.468-0.375 0.654-0.375 1.366 0 0.716 0.049 0.893 0.376 1.348 0.386 0.537 0.836 0.869 1.42 1.045 0.471 0.142 0.588 0.14 1.241-0.024zM4.168 29.338c-0.648-0.231-1.046-0.535-1.538-1.176-0.755-0.984-0.845-2.281-0.232-3.328 1.247-2.127 4.012-2.269 5.387-0.276 0.425 0.616 0.502 0.832 0.547 1.529 0.031 0.493-0.012 0.971-0.11 1.217-0.685 1.713-2.458 2.603-4.054 2.034zM6.494 27.549c0.433-0.464 0.483-0.586 0.483-1.172 0-1.11-0.741-1.88-1.807-1.88-0.696 0-1.23 0.279-1.561 0.815-0.417 0.675-0.454 1.12-0.144 1.759 0.394 0.815 0.889 1.1 1.809 1.043 0.678-0.042 0.776-0.088 1.221-0.564zM14.818 24.875c-1.971-0.253-3.809-1.202-5.325-2.749-0.534-0.545-1.058-0.99-1.166-0.99-0.434 0-3.238-0.778-4.332-1.202-4.833-1.872-5.352-5.117-1.166-7.295 1.158-0.602 3.095-1.258 4.68-1.583l1.094-0.225 1.16-1.141c1.337-1.315 2.389-1.917 4.098-2.344 1.391-0.347 3.633-0.282 4.886 0.143 1.61 0.546 2.986 1.442 3.994 2.601l0.629 0.723 1.164 0.232c4.596 0.916 7.482 2.824 7.485 4.949 0.004 2.155-2.508 3.869-7.224 4.929l-1.379 0.31-0.988 0.996c-1.553 1.566-3.285 2.418-5.407 2.661-0.6 0.069-1.146 0.118-1.215 0.11s-0.513-0.065-0.986-0.125zM17.995 23.43c0.844-0.23 2.187-0.922 2.764-1.422l0.428-0.372-1.44 0.094c-1.893 0.124-6.809 0.088-8.067-0.060l-0.993-0.116 0.469 0.405c0.524 0.453 1.881 1.19 2.645 1.436 1.154 0.372 2.906 0.386 4.194 0.035zM19.873 20.374c3.719-0.34 6.789-1.091 8.827-2.16 0.922-0.484 1.876-1.404 1.974-1.904 0.109-0.558-0.296-1.35-0.93-1.816-1.078-0.794-3.185-1.646-5.078-2.053l-0.404-0.087 0.138 0.416c0.184 0.554 0.272 0.625 1.295 1.047 0.482 0.199 1.113 0.58 1.402 0.846 1.717 1.581 0.397 3.273-3.28 4.203-2.32 0.587-3.654 0.706-7.825 0.7-3.469-0.005-4.147-0.039-5.634-0.284-1.913-0.315-3.487-0.761-4.513-1.279-2.445-1.234-2.106-3.22 0.73-4.27 0.788-0.292 0.86-0.364 1.088-1.096 0.090-0.288 0.076-0.295-0.39-0.208-0.83 0.155-2.828 0.832-3.613 1.225-1.135 0.568-1.921 1.193-2.209 1.758-0.222 0.435-0.239 0.575-0.12 0.972 0.613 2.047 6.084 3.849 12.471 4.108 2.37 0.096 4.104 0.062 6.072-0.117zM20.75 18.069c2.571-0.37 2.729-0.418 2.833-0.86 0.151-0.642 0.081-2.254-0.134-3.094-0.353-1.376-0.915-2.34-2.009-3.44-1.599-1.608-3.229-2.303-5.41-2.307-1.375-0.002-2.148 0.173-3.418 0.777-1.917 0.912-3.522 2.874-4.073 4.98-0.221 0.844-0.289 2.405-0.136 3.080 0.097 0.426 0.345 0.514 2.268 0.804 2.642 0.398 7.53 0.427 10.079 0.060zM7.040 16.003c0-0.62-0.017-1.127-0.038-1.127-0.327-0.002-1.527 0.934-1.527 1.191 0 0.267 1.055 1.042 1.44 1.058 0.075 0.003 0.125-0.451 0.125-1.122zM25.95 16.677c0.762-0.5 0.655-0.995-0.322-1.49l-0.622-0.315v2.252l0.312-0.119c0.172-0.065 0.456-0.213 0.631-0.328zM26.634 8.237c-0.869-0.153-1.515-0.648-1.939-1.487-0.327-0.646-0.216-1.8 0.238-2.48 0.418-0.627 1.391-1.162 2.11-1.162 0.802 0 1.678 0.457 2.134 1.114 0.359 0.518 0.4 0.668 0.4 1.473 0 0.795-0.043 0.958-0.377 1.434-0.61 0.868-1.571 1.283-2.565 1.109zM28.040 6.582c0.245-0.318 0.291-1.109 0.087-1.49-0.185-0.345-0.933-0.64-1.377-0.542-0.496 0.109-0.992 0.731-0.992 1.243 0 1.123 1.599 1.676 2.282 0.79zM1.906 6.068c-0.649-0.302-1.274-0.914-1.652-1.617-0.298-0.554-0.298-2.010 0-2.563 1.415-2.628 4.767-2.485 5.947 0.255 0.194 0.451 0.194 1.603 0 2.054-0.356 0.827-0.9 1.419-1.644 1.791-0.945 0.472-1.756 0.497-2.651 0.080zM4.505 4.371c0.428-0.458 0.47-0.565 0.47-1.212 0-0.671-0.030-0.74-0.547-1.257-0.541-0.541-0.757-0.616-1.582-0.549-0.52 0.042-1.094 0.482-1.368 1.048-0.323 0.668-0.324 0.87-0.003 1.533 0.607 1.255 2.069 1.465 3.030 0.437z"></path>
</svg>
