<!-- Generated by IcoMoon.io -->
<svg version="1.1" xmlns="http://www.w3.org/2000/svg" width="32" height="32" viewBox="0 0 32 32">
<title>m</title>
<path fill="#8c8c8c" d="M1.612 31.776c-0.496-0.097-0.986-0.26-1.088-0.362-0.398-0.398-0.587-6.873-0.505-17.246 0.061-7.668 0.157-11.029 0.332-11.571 0.135-0.42 0.291-0.764 0.345-0.764 0.511 0 3.214 2.894 7.423 7.949 3.049 3.662 6.214 7.184 6.934 7.716 0.368 0.272 0.773 0.411 0.995 0.341 0.644-0.204 4.483-4.321 8.13-8.718 4.283-5.164 6.886-7.865 7.239-7.512 0.307 0.307 0.456 14.834 0.243 23.784l-0.146 6.134-2.474 0.238c-1.361 0.131-2.589 0.237-2.729 0.235-0.199-0.002-0.255-1.672-0.255-7.663 0-4.213-0.077-7.63-0.172-7.592s-2.348 2.476-5.009 5.418c-2.66 2.943-4.906 5.35-4.991 5.35s-2.178-2.27-4.651-5.045c-2.473-2.775-4.69-5.219-4.926-5.433l-0.43-0.388v15.35l-1.682-0.022c-0.925-0.012-2.088-0.102-2.584-0.199z"></path>
</svg>
