<!-- Generated by IcoMoon.io -->
<svg version="1.1" xmlns="http://www.w3.org/2000/svg" width="220" height="32" viewBox="0 0 220 32">
<title>moons</title>
<path fill="#b4b4b4" d="M201.494 24v-8h18.318v16h-18.318zM212.473 28.612c0.742-0.25 1.217-0.54 1.759-1.078 0.724-0.717 1.212-1.628 1.406-2.624 0.139-0.712 0.109-1.555-0.077-2.141-0.023-0.074-0.038-0.107-0.033-0.074 0.060 0.382 0.078 0.526 0.092 0.738 0.073 1.111-0.248 2.239-0.918 3.223-0.388 0.571-0.787 0.968-1.55 1.545-0.158 0.12-0.648 0.381-0.817 0.436-0.060 0.020-0.117 0.050-0.093 0.050 0.005 0 0.109-0.034 0.231-0.075z"></path>
<path fill="#b0b0b0" d="M201.494 8v-8h18.318v16h-18.318zM210.841 12.953c0.465-0.025 0.981-0.13 1.545-0.312 0.793-0.257 1.286-0.552 1.846-1.107 0.724-0.717 1.212-1.628 1.406-2.624 0.127-0.65 0.114-1.413-0.035-2-0.030-0.12-0.221-0.702-0.248-0.755-0.014-0.028-0.021-0.036-0.016-0.018 0.256 0.889 0.297 1.686 0.129 2.512-0.211 1.033-0.803 2.073-1.592 2.795-0.371 0.34-0.891 0.698-1.268 0.876-0.578 0.272-1.161 0.43-1.945 0.529-0.183 0.023-0.34 0.049-0.349 0.058-0.015 0.015 0.021 0.031 0.104 0.048 0.013 0.003 0.027 0.008 0.031 0.013s0.052 0.006 0.106 0.002c0.054-0.003 0.182-0.011 0.286-0.016z"></path>
<path fill="#9d9d9d" d="M183.176 24v-8h18.318v16h-18.318zM192.936 29.013c0.727-0.088 1.555-0.364 2.103-0.701 0.668-0.411 1.28-1.033 1.691-1.721 0.487-0.816 0.73-1.687 0.731-2.618 0-0.813-0.137-1.382-0.513-2.131-0.087-0.172-0.133-0.239-0.078-0.112 0.154 0.354 0.272 0.795 0.344 1.285 0.038 0.26 0.044 0.98 0.009 1.226-0.177 1.251-0.763 2.381-1.663 3.203-0.371 0.34-0.891 0.698-1.268 0.876-0.578 0.272-1.161 0.43-1.945 0.529-0.183 0.023-0.34 0.049-0.349 0.058-0.015 0.015 0.021 0.031 0.104 0.048 0.065 0.013 0.029 0.024-0.076 0.024-0.411-0.002-0.877-0.054-1.223-0.137-0.234-0.056-0.269-0.061-0.166-0.023 0.178 0.066 0.708 0.175 1.003 0.205 0.361 0.038 0.943 0.033 1.298-0.010z"></path>
<path fill="#9a9a9a" d="M183.176 8v-8h18.318v16h-18.318zM192.936 13.013c0.727-0.088 1.555-0.364 2.103-0.701 0.668-0.411 1.28-1.033 1.691-1.721 0.487-0.816 0.73-1.687 0.731-2.618 0-0.805-0.138-1.384-0.504-2.112-0.081-0.161-0.182-0.323-0.194-0.311-0.004 0.004 0.031 0.103 0.078 0.22 0.225 0.567 0.337 1.1 0.356 1.698 0.034 1.064-0.307 2.156-0.964 3.082-0.339 0.478-0.701 0.835-1.245 1.23-0.343 0.248-0.389 0.278-0.644 0.411-0.933 0.487-2.059 0.691-3.193 0.581-0.413-0.040-0.881-0.172-1.332-0.375-0.126-0.057-0.211-0.089-0.187-0.070 0.062 0.048 0.421 0.249 0.532 0.298 0.052 0.023 0.145 0.065 0.206 0.093 0.286 0.13 0.823 0.26 1.269 0.306 0.361 0.038 0.943 0.033 1.298-0.010z"></path>
<path fill="#898989" d="M164.858 24v-8h18.318v16h-18.318zM174.721 29.1c0.546-0.083 1.15-0.272 1.614-0.504 0.185-0.093 0.524-0.298 0.707-0.428 1.327-0.943 2.153-2.546 2.152-4.177-0-0.771-0.157-1.471-0.471-2.112-0.161-0.327-0.438-0.765-0.326-0.515 0.1 0.224 0.1 0.224 0.070 0.199-0.015-0.013-0.027-0.019-0.027-0.015s0.038 0.104 0.085 0.221c0.225 0.567 0.337 1.1 0.356 1.698 0.034 1.064-0.307 2.156-0.964 3.082-0.339 0.478-0.701 0.835-1.245 1.23-0.343 0.248-0.389 0.278-0.644 0.411-0.933 0.487-2.059 0.692-3.193 0.581-0.413-0.040-0.88-0.172-1.332-0.375-0.126-0.057-0.215-0.091-0.196-0.077 0.045 0.035 0.239 0.149 0.411 0.241 0.076 0.041 0.134 0.074 0.128 0.075-0.015 0-0.294-0.122-0.518-0.228-0.111-0.053-0.198-0.089-0.193-0.081 0.014 0.023 0.33 0.213 0.464 0.28 0.553 0.275 1.136 0.446 1.777 0.519 0.306 0.035 1.042 0.022 1.348-0.025zM171.88 28.652c-0.014-0.009-0.018-0.017-0.009-0.017s0.029 0.008 0.043 0.017c0.014 0.009 0.018 0.017 0.009 0.017s-0.029-0.008-0.043-0.017z"></path>
<path fill="#898989" d="M164.858 8v-8h18.318v16h-18.318zM174.721 13.1c0.546-0.083 1.15-0.272 1.614-0.504 0.185-0.092 0.524-0.298 0.707-0.428 1.327-0.943 2.153-2.546 2.152-4.177-0-0.771-0.157-1.471-0.471-2.112-0.161-0.327-0.438-0.765-0.326-0.515 0.1 0.224 0.1 0.224 0.070 0.199-0.015-0.013-0.027-0.019-0.027-0.015s0.038 0.104 0.085 0.221c0.225 0.567 0.337 1.1 0.356 1.698 0.030 0.915-0.215 1.837-0.716 2.704-0.247 0.427-0.655 0.92-1.038 1.255-0.141 0.123-0.375 0.301-0.467 0.354-0.036 0.021-0.070 0.044-0.075 0.052s-0.021 0.017-0.034 0.019c-0.013 0.002-0.070 0.034-0.126 0.070s-0.212 0.122-0.345 0.19c-1.050 0.533-2.125 0.715-3.286 0.556-0.538-0.074-0.992-0.215-1.571-0.488-0.251-0.119-0.283-0.131-0.283-0.113 0 0.033 0.846 0.551 0.899 0.551 0.009 0 0.012 0.004 0.008 0.009-0.010 0.010-0.22-0.080-0.517-0.22-0.111-0.053-0.198-0.089-0.193-0.081 0.014 0.023 0.33 0.213 0.464 0.28 0.553 0.275 1.136 0.446 1.777 0.519 0.306 0.035 1.042 0.022 1.348-0.025zM171.88 12.652c-0.014-0.009-0.018-0.017-0.009-0.017s0.029 0.008 0.043 0.017c0.014 0.009 0.018 0.017 0.009 0.017s-0.029-0.008-0.043-0.017z"></path>
<path fill="#818181" d="M146.541 24v-8h18.318v16h-18.318zM156.403 29.1c0.546-0.083 1.15-0.272 1.614-0.504 0.185-0.093 0.524-0.298 0.707-0.428 1.327-0.943 2.153-2.546 2.152-4.177-0.001-1.124-0.317-2.052-1.011-2.971-0.112-0.148-0.312-0.373-0.323-0.362-0.004 0.004 0.069 0.125 0.164 0.267 0.441 0.664 0.697 1.355 0.785 2.113 0.035 0.303 0.026 0.922-0.018 1.193-0.178 1.111-0.674 2.105-1.46 2.925-0.28 0.293-0.778 0.694-1.052 0.849-0.532 0.3-1.176 0.534-1.763 0.639-0.619 0.111-1.391 0.1-2.026-0.030-0.478-0.098-0.753-0.193-1.305-0.451-0.132-0.062-0.243-0.105-0.246-0.096-0.010 0.030-0.382-0.239-0.626-0.452-0.064-0.056-0.12-0.098-0.125-0.094-0.009 0.009 0.254 0.266 0.421 0.41 0.252 0.218 0.72 0.538 0.972 0.664 0.56 0.281 1.144 0.453 1.792 0.528 0.306 0.035 1.042 0.022 1.348-0.025z"></path>
<path fill="#797979" d="M146.541 8v-8h18.318v16h-18.318zM156.283 13.16c1.008-0.13 1.932-0.519 2.7-1.137 0.841-0.677 1.493-1.707 1.772-2.802 0.273-1.071 0.155-2.342-0.308-3.309-0.089-0.185-0.242-0.447-0.275-0.47-0.007-0.005-0.084-0.109-0.171-0.232-0.213-0.299-0.44-0.571-0.459-0.551-0.004 0.004 0.070 0.124 0.164 0.267 0.441 0.664 0.697 1.355 0.785 2.113 0.035 0.303 0.026 0.922-0.018 1.193-0.178 1.111-0.674 2.105-1.46 2.925-0.28 0.293-0.778 0.694-1.052 0.849-0.532 0.3-1.176 0.534-1.763 0.639-0.619 0.111-1.391 0.1-2.026-0.030-0.478-0.098-0.753-0.193-1.305-0.451-0.132-0.062-0.243-0.105-0.246-0.096-0.010 0.030-0.382-0.239-0.626-0.452-0.064-0.056-0.12-0.098-0.125-0.094-0.010 0.010 0.262 0.274 0.43 0.417 0.066 0.057 0.222 0.176 0.346 0.266s0.219 0.167 0.21 0.173c-0.033 0.021 0.13 0.124 0.443 0.28 0.59 0.295 1.241 0.472 1.954 0.532 0.164 0.014 0.842-0.007 1.030-0.031z"></path>
<path fill="#777" d="M128.223 24v-8h18.318v16h-18.318zM137.966 29.16c1.008-0.13 1.932-0.519 2.7-1.137 0.87-0.7 1.547-1.796 1.796-2.908 0.109-0.485 0.121-0.604 0.121-1.158 0-0.449-0.005-0.547-0.039-0.767-0.171-1.106-0.668-2.072-1.388-2.694-0.176-0.152-0.241-0.188-0.158-0.087 0.213 0.259 0.282 0.35 0.414 0.551 0.421 0.639 0.675 1.335 0.761 2.078 0.035 0.303 0.026 0.922-0.018 1.193-0.178 1.111-0.674 2.105-1.46 2.925-0.28 0.293-0.778 0.694-1.052 0.849-0.532 0.3-1.176 0.534-1.763 0.639-0.619 0.111-1.391 0.1-2.026-0.030-0.478-0.098-0.753-0.193-1.305-0.451-0.132-0.062-0.243-0.105-0.246-0.096s-0.069-0.027-0.146-0.080c-0.268-0.185-0.506-0.382-0.765-0.631-0.178-0.172-0.181-0.168-0.029 0.033 0.511 0.676 1.499 1.32 2.447 1.596 0.334 0.097 0.754 0.174 1.125 0.205 0.164 0.014 0.842-0.007 1.030-0.031z"></path>
<path fill="#777" d="M128.223 8v-8h18.318v16h-18.318zM137.811 13.219c1.839-0.17 3.423-1.253 4.238-2.901 0.499-1.007 0.659-2.011 0.499-3.124-0.152-1.058-0.681-2.082-1.392-2.696-0.176-0.152-0.241-0.188-0.158-0.087 0.213 0.259 0.282 0.35 0.414 0.551 0.421 0.639 0.675 1.335 0.761 2.078 0.035 0.303 0.026 0.922-0.018 1.193-0.178 1.111-0.674 2.105-1.46 2.925-0.28 0.293-0.778 0.694-1.052 0.849-0.532 0.3-1.176 0.534-1.763 0.639-0.619 0.111-1.391 0.1-2.026-0.030-0.478-0.098-0.753-0.193-1.305-0.451-0.132-0.062-0.243-0.105-0.246-0.096s-0.069-0.027-0.146-0.080c-0.268-0.185-0.506-0.382-0.765-0.631-0.089-0.086-0.155-0.144-0.147-0.13 0.108 0.195 0.627 0.735 0.917 0.953 0.771 0.581 1.618 0.92 2.566 1.029 0.235 0.027 0.83 0.032 1.083 0.008z"></path>
<path fill="#616161" d="M109.906 24v-8h18.318v16h-18.318zM119.494 29.219c1.839-0.17 3.423-1.253 4.238-2.901 0.499-1.007 0.659-2.011 0.499-3.124-0.152-1.058-0.681-2.082-1.392-2.696-0.183-0.158-0.245-0.189-0.145-0.072 0.276 0.324 0.477 0.631 0.671 1.026 0.231 0.47 0.373 0.927 0.448 1.442 0.048 0.333 0.052 0.855 0.009 1.184-0.15 1.145-0.67 2.204-1.491 3.035-0.891 0.902-2.187 1.474-3.479 1.537-0.733 0.036-1.468-0.072-2.079-0.306-0.39-0.149-0.814-0.383-1.231-0.681-0.13-0.093-0.255-0.178-0.277-0.19-0.038-0.020-0.040-0.019-0.031 0.016 0.006 0.024-0.050-0.021-0.155-0.124-0.091-0.089-0.158-0.15-0.15-0.136 0.108 0.195 0.627 0.735 0.917 0.953 0.771 0.581 1.618 0.92 2.566 1.029 0.235 0.027 0.83 0.032 1.082 0.008z"></path>
<path fill="#616161" d="M109.906 8v-8h18.318v16h-18.318zM119.657 13.245c0.412-0.052 0.842-0.156 1.213-0.293 0.272-0.1 0.801-0.37 1.053-0.538 0.861-0.572 1.523-1.355 1.949-2.302 0.611-1.361 0.605-2.961-0.015-4.314-0.223-0.486-0.68-1.126-0.984-1.377-0.058-0.048-0.198-0.165-0.311-0.259-0.215-0.18-0.411-0.327-0.457-0.345-0.083-0.032 0.008 0.072 0.318 0.364 0.382 0.36 0.521 0.528 0.742 0.898 0.64 1.073 0.836 2.25 0.575 3.461-0.202 0.938-0.707 1.86-1.41 2.571-0.891 0.902-2.187 1.474-3.479 1.537-0.733 0.036-1.468-0.072-2.079-0.306-0.39-0.149-0.814-0.383-1.231-0.681-0.13-0.093-0.255-0.178-0.277-0.19-0.038-0.020-0.040-0.019-0.031 0.016 0.015 0.058-0.299-0.262-0.442-0.45-0.068-0.090-0.172-0.234-0.231-0.321-0.213-0.312-0.189-0.219 0.037 0.147 0.387 0.626 0.905 1.15 1.553 1.571 0.728 0.472 1.552 0.757 2.409 0.834 0.244 0.022 0.836 0.009 1.098-0.024z"></path>
<path fill="#494949" d="M91.588 24v-8h18.318v16h-18.318zM101.339 29.245c0.412-0.052 0.842-0.156 1.213-0.293 0.272-0.1 0.801-0.37 1.053-0.538 0.861-0.572 1.523-1.355 1.949-2.302 0.611-1.361 0.605-2.961-0.015-4.314-0.223-0.485-0.68-1.126-0.984-1.377-0.058-0.048-0.198-0.165-0.311-0.259-0.215-0.18-0.411-0.327-0.457-0.345-0.072-0.028-0.004 0.055 0.253 0.309 0.31 0.305 0.441 0.463 0.655 0.783 0.689 1.032 0.92 2.259 0.659 3.496s-1.007 2.391-2.023 3.132c-0.478 0.349-1.102 0.655-1.675 0.822-0.488 0.143-0.944 0.208-1.457 0.208-1.030 0-1.882-0.243-2.663-0.762-0.351-0.233-0.463-0.328-0.931-0.789-0.191-0.188-0.354-0.338-0.362-0.333s-0.039-0.025-0.069-0.067c-0.144-0.2-0.083-0.059 0.106 0.247 0.387 0.626 0.905 1.15 1.553 1.571 0.728 0.472 1.552 0.757 2.409 0.834 0.244 0.022 0.836 0.009 1.098-0.024z"></path>
<path fill="#444" d="M91.588 8v-8h18.318v16h-18.318zM101.279 13.305c1.233-0.143 2.372-0.7 3.219-1.574 0.761-0.784 1.275-1.768 1.457-2.788 0.065-0.366 0.079-0.547 0.078-0.987-0.002-0.547-0.040-0.859-0.165-1.33-0.194-0.733-0.555-1.413-1.063-2.001-0.138-0.16-0.35-0.344-0.568-0.494-0.069-0.048-0.151-0.113-0.182-0.146s-0.056-0.053-0.056-0.046c0 0.008-0.017-0.002-0.039-0.022-0.035-0.032-0.17-0.108-0.192-0.108-0.037 0 0.027 0.074 0.271 0.316 0.31 0.306 0.441 0.463 0.655 0.783 0.689 1.032 0.92 2.259 0.659 3.496s-1.007 2.391-2.023 3.132c-0.478 0.349-1.102 0.655-1.675 0.822-0.488 0.143-0.944 0.208-1.457 0.208-1.030 0-1.882-0.243-2.663-0.762-0.351-0.233-0.463-0.328-0.93-0.788-0.191-0.188-0.353-0.339-0.362-0.337-0.022 0.007-0.172-0.183-0.248-0.312-0.036-0.061-0.065-0.107-0.065-0.102 0 0.033 0.1 0.252 0.181 0.397 0.509 0.912 1.275 1.633 2.256 2.125 0.611 0.306 1.229 0.48 1.895 0.532 0.228 0.018 0.798 0.009 1.015-0.017z"></path>
<path fill="#3b3b3b" d="M73.27 24v-8h18.318v16h-18.318zM82.961 29.305c1.233-0.143 2.372-0.7 3.219-1.574 0.761-0.784 1.275-1.768 1.457-2.788 0.065-0.366 0.079-0.547 0.078-0.987-0.002-0.547-0.040-0.859-0.165-1.33-0.194-0.733-0.555-1.413-1.063-2.001-0.138-0.16-0.35-0.344-0.568-0.494-0.069-0.048-0.151-0.113-0.182-0.146s-0.056-0.053-0.056-0.046c0 0.008-0.017-0.002-0.039-0.022-0.035-0.032-0.17-0.108-0.192-0.108-0.034 0 0.005 0.060 0.089 0.139 0.153 0.143 0.426 0.438 0.562 0.608 0.5 0.624 0.819 1.355 0.947 2.172 0.043 0.272 0.043 1.050 0.001 1.279-0.016 0.085-0.036 0.197-0.045 0.249-0.097 0.553-0.335 1.155-0.686 1.734-0.11 0.182-0.25 0.376-0.447 0.623-0.141 0.177-0.506 0.531-0.734 0.712-0.552 0.439-1.391 0.831-2.156 1.007-0.665 0.153-1.295 0.178-1.979 0.079-1.278-0.186-2.267-0.822-3.121-2.007-0.078-0.108-0.151-0.199-0.163-0.203-0.039-0.013-0.023 0.074 0.039 0.22 0.073 0.17 0.039 0.154-0.071-0.034-0.042-0.071-0.076-0.125-0.076-0.12 0 0.033 0.1 0.252 0.181 0.397 0.509 0.912 1.275 1.633 2.256 2.125 0.611 0.306 1.229 0.48 1.895 0.532 0.228 0.018 0.798 0.009 1.015-0.017z"></path>
<path fill="#353535" d="M73.27 8v-8h18.318v16h-18.318zM82.961 13.305c1.233-0.143 2.372-0.7 3.219-1.574 0.761-0.784 1.275-1.768 1.457-2.788 0.065-0.366 0.079-0.547 0.078-0.987-0.002-0.864-0.161-1.55-0.526-2.283-0.23-0.462-0.656-1.053-0.909-1.263-0.164-0.136-0.522-0.423-0.596-0.478-0.043-0.032-0.104-0.080-0.134-0.106s-0.092-0.066-0.137-0.089c-0.045-0.023-0.12-0.062-0.167-0.087s-0.098-0.045-0.116-0.045c-0.078 0-0.019 0.069 0.244 0.284 0.652 0.532 1.058 1.076 1.343 1.802 0.215 0.548 0.308 1.055 0.303 1.665-0.005 0.67-0.161 1.344-0.458 1.982-0.048 0.103-0.245 0.468-0.297 0.55-0.343 0.54-0.62 0.869-1.050 1.246-1.026 0.901-2.489 1.386-3.85 1.278-0.788-0.063-1.419-0.251-1.982-0.59-0.706-0.426-1.289-1.052-1.736-1.865-0.060-0.109-0.14-0.254-0.178-0.322-0.18-0.322-0.107 0.002 0.142 0.636 0.337 0.858 1.090 1.714 1.998 2.274 0.732 0.451 1.518 0.712 2.337 0.777 0.228 0.018 0.798 0.009 1.015-0.017z"></path>
<path fill="#2d2d2d" d="M54.953 24v-8h18.318v16h-18.318zM64.772 29.365c0.42-0.058 0.92-0.19 1.313-0.347 0.467-0.187 1.035-0.522 1.279-0.754 0.033-0.031 0.15-0.138 0.259-0.237 0.596-0.538 1.075-1.206 1.385-1.933 0.184-0.431 0.331-0.989 0.372-1.407 0.006-0.061 0.015-0.15 0.020-0.197 0.018-0.161 0.012-0.858-0.009-1.030-0.101-0.823-0.322-1.482-0.718-2.143-0.191-0.319-0.542-0.764-0.712-0.906-0.164-0.136-0.522-0.423-0.596-0.478-0.043-0.032-0.104-0.080-0.134-0.106s-0.092-0.066-0.137-0.089c-0.045-0.023-0.12-0.062-0.167-0.087s-0.098-0.045-0.116-0.045c-0.078 0-0.019 0.069 0.244 0.284 0.652 0.532 1.058 1.076 1.343 1.802 0.215 0.548 0.308 1.055 0.303 1.665-0.005 0.67-0.161 1.344-0.458 1.982-0.048 0.103-0.245 0.468-0.297 0.55-0.343 0.54-0.62 0.869-1.050 1.246-1.026 0.901-2.489 1.386-3.85 1.278-0.788-0.063-1.419-0.251-1.982-0.59-0.706-0.426-1.289-1.052-1.736-1.865-0.219-0.398-0.248-0.447-0.265-0.442-0.022 0.006-0.014 0.065 0.029 0.211 0.034 0.115 0.225 0.622 0.282 0.747 0.015 0.033 0.030 0.079 0.034 0.103 0.007 0.041 0.006 0.042-0.019 0.010-0.046-0.060-0.027-0.004 0.045 0.128 0.337 0.62 0.828 1.159 1.545 1.695 0.44 0.329 0.856 0.548 1.363 0.717 0.43 0.143 0.713 0.205 1.227 0.266 0.193 0.023 0.97 0.007 1.202-0.025z"></path>
<path fill="#2b2b2b" d="M54.953 8v-8h18.318v16h-18.318zM64.772 13.365c0.42-0.057 0.92-0.19 1.313-0.347 0.467-0.187 1.035-0.522 1.279-0.754 0.033-0.031 0.15-0.138 0.259-0.237 0.596-0.538 1.075-1.206 1.385-1.933 0.184-0.431 0.331-0.989 0.372-1.407 0.006-0.061 0.015-0.15 0.020-0.197 0.018-0.161 0.012-0.858-0.009-1.030-0.101-0.823-0.322-1.482-0.718-2.143-0.191-0.319-0.542-0.764-0.712-0.906-0.164-0.136-0.522-0.423-0.596-0.478-0.043-0.032-0.104-0.080-0.134-0.106s-0.092-0.066-0.137-0.089c-0.045-0.023-0.12-0.062-0.167-0.087-0.088-0.048-0.148-0.058-0.148-0.026 0 0.026 0.193 0.215 0.403 0.396 0.617 0.532 1.029 1.169 1.271 1.964 0.112 0.369 0.167 0.78 0.168 1.243 0.001 0.448-0.038 0.736-0.157 1.185-0.129 0.488-0.377 1.048-0.624 1.411-0.017 0.026-0.032 0.055-0.032 0.064s-0.006 0.018-0.013 0.018c-0.007 0-0.023 0.022-0.035 0.050s-0.041 0.070-0.064 0.095c-0.023 0.025-0.050 0.061-0.061 0.080-0.020 0.037-0.026 0.045-0.141 0.178-0.041 0.047-0.095 0.114-0.121 0.149-0.144 0.195-0.568 0.591-0.888 0.827-0.133 0.099-0.582 0.371-0.611 0.371-0.004 0-0.056 0.023-0.115 0.050-0.117 0.055-0.513 0.214-0.622 0.25-0.089 0.029-0.385 0.118-0.506 0.151-0.799 0.222-1.864 0.22-2.67-0.004-0.347-0.096-0.788-0.295-1.056-0.474-0.475-0.318-0.825-0.666-1.204-1.192-0.211-0.294-0.49-0.864-0.645-1.32-0.015-0.043-0.041-0.105-0.058-0.137-0.026-0.049-0.034-0.054-0.043-0.029-0.017 0.044 0.005 0.313 0.034 0.413 0.013 0.047 0.049 0.175 0.080 0.283 0.048 0.172 0.223 0.648 0.302 0.824 0.015 0.033 0.030 0.079 0.034 0.103 0.007 0.041 0.006 0.042-0.019 0.010-0.046-0.060-0.027-0.004 0.045 0.128 0.337 0.62 0.828 1.159 1.545 1.695 0.44 0.329 0.856 0.548 1.363 0.717 0.43 0.143 0.713 0.205 1.227 0.266 0.193 0.023 0.97 0.007 1.202-0.025z"></path>
<path fill="#222" d="M36.635 24v-8h18.318v16h-18.318zM46.455 29.365c0.584-0.080 1.2-0.27 1.708-0.527 0.535-0.271 0.892-0.536 1.384-1.026 0.282-0.281 0.386-0.407 0.61-0.739 0.727-1.077 1.050-2.194 0.983-3.399-0.041-0.74-0.194-1.334-0.52-2.031-0.066-0.141-0.287-0.518-0.377-0.643-0.168-0.234-0.238-0.323-0.386-0.492-0.175-0.2-0.557-0.559-0.595-0.559-0.012 0-0.029-0.010-0.036-0.023-0.023-0.037-0.23-0.175-0.656-0.437-0.395-0.242-0.994-0.463-1.547-0.569-0.222-0.043-0.94-0.063-0.975-0.028-0.019 0.019 0.034 0.040 0.132 0.051 0.053 0.006 0.166 0.023 0.251 0.038 0.71 0.125 1.044 0.239 1.756 0.597 0.335 0.169 0.414 0.216 0.562 0.338 0.489 0.405 0.839 0.831 1.094 1.33 0.319 0.624 0.464 1.241 0.464 1.981 0.001 0.448-0.038 0.736-0.157 1.185-0.129 0.488-0.377 1.048-0.624 1.411-0.017 0.026-0.032 0.055-0.032 0.064s-0.006 0.018-0.013 0.018c-0.007 0-0.023 0.022-0.035 0.050s-0.041 0.070-0.064 0.095c-0.023 0.025-0.050 0.061-0.061 0.080-0.020 0.037-0.026 0.045-0.141 0.178-0.041 0.047-0.095 0.114-0.121 0.149-0.144 0.195-0.568 0.591-0.888 0.827-0.133 0.099-0.582 0.371-0.611 0.371-0.004 0-0.056 0.023-0.115 0.050-0.117 0.055-0.513 0.214-0.622 0.25-0.089 0.029-0.385 0.118-0.506 0.151-0.799 0.222-1.864 0.22-2.67-0.004-0.347-0.096-0.788-0.295-1.056-0.474-0.475-0.318-0.825-0.666-1.204-1.192-0.211-0.294-0.49-0.864-0.645-1.32-0.035-0.103-0.084-0.193-0.098-0.179-0.006 0.006-0.012 0.054-0.012 0.107l-0.001 0.096-0.052-0.163c-0.028-0.090-0.066-0.206-0.084-0.258l-0.032-0.094 0.009 0.103c0.051 0.615 0.254 1.262 0.59 1.883 0.391 0.723 0.84 1.228 1.599 1.795 0.44 0.329 0.856 0.548 1.363 0.717 0.43 0.143 0.713 0.205 1.227 0.266 0.193 0.023 0.97 0.007 1.202-0.025z"></path>
<path fill="#1e1e1e" d="M36.635 8v-8h18.318v16h-18.318zM46.455 13.365c0.584-0.080 1.2-0.27 1.708-0.527 0.535-0.271 0.892-0.536 1.384-1.026 0.282-0.281 0.386-0.407 0.61-0.739 0.727-1.077 1.050-2.194 0.983-3.399-0.041-0.74-0.194-1.334-0.52-2.031-0.066-0.141-0.287-0.518-0.377-0.643-0.168-0.234-0.238-0.323-0.386-0.492-0.175-0.2-0.557-0.559-0.595-0.559-0.012 0-0.029-0.010-0.036-0.023-0.015-0.025-0.17-0.134-0.357-0.252-0.493-0.31-0.661-0.395-1.064-0.537-0.322-0.114-0.487-0.16-0.781-0.216-0.222-0.043-0.94-0.063-0.975-0.028-0.019 0.019 0.034 0.040 0.132 0.051 0.115 0.013 0.333 0.051 0.605 0.105 0.496 0.099 1.137 0.36 1.535 0.624 0.469 0.311 0.924 0.77 1.215 1.225 0.035 0.054 0.063 0.102 0.063 0.107s0.022 0.045 0.048 0.090c0.148 0.253 0.356 0.781 0.408 1.041 0.090 0.449 0.111 0.636 0.111 1.007 0 0.454-0.032 0.695-0.152 1.142-0.033 0.123-0.062 0.239-0.065 0.258s-0.033 0.104-0.068 0.189c-0.034 0.085-0.066 0.174-0.071 0.197s-0.022 0.070-0.039 0.103c-0.017 0.033-0.072 0.142-0.122 0.241s-0.108 0.207-0.128 0.24c-0.021 0.033-0.051 0.089-0.068 0.124s-0.037 0.064-0.046 0.064c-0.008 0-0.015 0.008-0.015 0.018 0 0.017-0.122 0.2-0.218 0.328-0.134 0.178-0.191 0.248-0.22 0.272-0.017 0.014-0.044 0.047-0.060 0.074-0.077 0.126-0.507 0.527-0.774 0.72-0.366 0.266-0.659 0.432-1.008 0.573-0.407 0.164-0.753 0.27-1.076 0.332-0.104 0.020-0.224 0.043-0.266 0.052-0.070 0.015-0.227 0.031-0.578 0.061-0.327 0.027-0.849-0.006-1.225-0.078-0.779-0.15-1.436-0.505-2.027-1.096-0.69-0.69-1.097-1.515-1.248-2.529-0.021-0.141-0.029-0.314-0.030-0.639-0.001-0.471 0.023-0.707 0.113-1.1 0.020-0.086 0.033-0.175 0.029-0.197-0.005-0.035-0.013-0.027-0.052 0.053-0.040 0.083-0.076 0.219-0.065 0.251 0.002 0.006-0.003 0.016-0.012 0.022-0.029 0.019-0.069 0.147-0.098 0.311-0.016 0.090-0.040 0.221-0.054 0.292-0.047 0.246-0.064 0.547-0.054 1.004 0.011 0.488 0.021 0.583 0.098 0.9 0.113 0.463 0.272 0.877 0.497 1.292 0.391 0.723 0.84 1.228 1.599 1.795 0.44 0.329 0.856 0.548 1.363 0.717 0.43 0.143 0.713 0.205 1.227 0.266 0.193 0.023 0.97 0.007 1.202-0.025z"></path>
<path fill="#1a1a1a" d="M18.318 24v-8h18.318v16h-18.318zM28.058 29.416c1.161-0.122 2.261-0.644 3.15-1.494 0.492-0.47 0.973-1.216 1.269-1.967 0.232-0.588 0.333-1.056 0.366-1.692 0.035-0.658-0.052-1.314-0.253-1.912-0.033-0.099-0.068-0.198-0.076-0.219s-0.023-0.056-0.031-0.077c-0.008-0.021-0.035-0.083-0.060-0.138s-0.045-0.102-0.045-0.106c0-0.028-0.163-0.344-0.271-0.522-0.129-0.214-0.153-0.251-0.321-0.479-0.279-0.38-0.876-0.955-1.191-1.146-0.016-0.009-0.079-0.051-0.14-0.093-0.129-0.087-0.445-0.25-0.458-0.236-0.005 0.005-0.045-0.009-0.089-0.030-0.247-0.124-0.826-0.316-1.122-0.372-0.045-0.009-0.122-0.023-0.172-0.033-0.345-0.067-0.889-0.071-1.095-0.010l-0.077 0.023 0.12 0.012c0.066 0.007 0.197 0.023 0.292 0.037s0.23 0.033 0.3 0.043c0.677 0.095 1.353 0.339 1.846 0.667 0.469 0.311 0.924 0.77 1.215 1.225 0.035 0.054 0.063 0.102 0.063 0.107s0.022 0.045 0.048 0.090c0.148 0.253 0.356 0.781 0.408 1.041 0.090 0.449 0.111 0.636 0.111 1.007 0 0.454-0.032 0.695-0.152 1.142-0.033 0.123-0.062 0.239-0.065 0.258s-0.033 0.104-0.068 0.189c-0.034 0.085-0.066 0.174-0.071 0.197s-0.022 0.070-0.039 0.103c-0.017 0.033-0.072 0.142-0.122 0.241s-0.108 0.207-0.128 0.24c-0.021 0.033-0.051 0.089-0.068 0.124s-0.037 0.064-0.046 0.064c-0.008 0-0.015 0.008-0.015 0.018 0 0.017-0.122 0.2-0.218 0.328-0.134 0.178-0.191 0.248-0.22 0.272-0.017 0.014-0.044 0.047-0.060 0.074-0.077 0.126-0.507 0.527-0.774 0.72-0.366 0.266-0.659 0.432-1.008 0.573-0.407 0.164-0.753 0.27-1.076 0.332-0.104 0.020-0.224 0.043-0.266 0.052-0.070 0.015-0.227 0.031-0.578 0.061-0.327 0.027-0.849-0.006-1.225-0.078-0.779-0.15-1.436-0.505-2.027-1.096-0.69-0.69-1.097-1.515-1.248-2.529-0.021-0.141-0.029-0.314-0.030-0.639-0.001-0.471 0.023-0.707 0.113-1.1 0.020-0.086 0.033-0.175 0.029-0.197-0.005-0.035-0.013-0.027-0.052 0.053-0.040 0.083-0.076 0.219-0.065 0.251 0.002 0.006-0.003 0.016-0.012 0.022-0.029 0.019-0.069 0.147-0.098 0.311-0.016 0.090-0.040 0.221-0.054 0.292-0.058 0.302-0.078 0.993-0.042 1.402 0.008 0.093 0.019 0.219 0.024 0.282 0.010 0.136 0.060 0.362 0.142 0.642 0.24 0.824 0.762 1.627 1.498 2.304 0.391 0.359 0.653 0.549 1.065 0.77 0.398 0.213 0.788 0.361 1.286 0.488 0.574 0.145 1.206 0.183 1.88 0.112z"></path>
<path fill="#141414" d="M18.318 8v-8h18.318v16h-18.318zM28.058 13.416c1.161-0.122 2.261-0.644 3.15-1.494 0.492-0.47 0.973-1.216 1.269-1.967 0.232-0.588 0.333-1.056 0.366-1.692 0.051-0.962-0.159-1.903-0.626-2.804-0.082-0.158-0.353-0.569-0.475-0.721-0.2-0.248-0.236-0.29-0.395-0.446-0.245-0.242-0.589-0.529-0.752-0.627-0.016-0.010-0.083-0.053-0.149-0.096s-0.147-0.094-0.18-0.112c-0.119-0.067-0.731-0.337-0.892-0.393-0.243-0.085-0.553-0.155-0.712-0.161-0.047-0.002-0.090-0.006-0.096-0.010-0.012-0.008-0.135-0.020-0.403-0.042-0.194-0.015-0.528 0.006-0.644 0.040l-0.077 0.023 0.12 0.012c0.066 0.007 0.197 0.023 0.292 0.037s0.23 0.033 0.3 0.043c0.325 0.046 0.873 0.183 0.953 0.239 0.009 0.007 0.056 0.026 0.103 0.043 0.223 0.081 0.592 0.286 0.815 0.453 0.517 0.386 0.8 0.684 1.095 1.152 0.209 0.332 0.465 0.979 0.519 1.309 0.089 0.553 0.106 0.828 0.076 1.24-0.020 0.283-0.124 0.776-0.22 1.047-0.086 0.244-0.161 0.436-0.219 0.567-0.017 0.038-0.039 0.088-0.049 0.112-0.079 0.187-0.499 0.816-0.693 1.039-0.128 0.147-0.531 0.553-0.595 0.601-0.026 0.019-0.104 0.078-0.174 0.131-0.244 0.185-0.472 0.33-0.728 0.463-0.325 0.169-0.532 0.252-0.85 0.342-0.355 0.1-0.438 0.12-0.609 0.145-0.104 0.015-0.216 0.035-0.249 0.043-0.25 0.063-1.001 0.079-1.382 0.029-0.391-0.052-0.684-0.118-0.953-0.217-0.149-0.054-0.477-0.213-0.562-0.272-0.026-0.018-0.094-0.062-0.15-0.099-0.343-0.22-0.681-0.524-0.941-0.848-0.491-0.612-0.759-1.199-0.894-1.957-0.072-0.404-0.081-1.058-0.020-1.459 0.032-0.214 0.155-0.713 0.256-1.039 0.003-0.009 0.011-0.040 0.018-0.069s0.016-0.063 0.021-0.077c0.005-0.014 0.007-0.029 0.006-0.032s0.008-0.013 0.020-0.021c0.013-0.008 0.015-0.015 0.006-0.015-0.031 0-0.052 0.024-0.131 0.145-0.126 0.195-0.198 0.336-0.264 0.517-0.186 0.514-0.281 1.127-0.26 1.689 0.009 0.255 0.047 0.639 0.069 0.704 0.005 0.014 0.012 0.087 0.017 0.163 0.009 0.155 0.054 0.366 0.142 0.67 0.24 0.824 0.762 1.627 1.498 2.304 0.391 0.359 0.653 0.549 1.065 0.77 0.398 0.213 0.788 0.361 1.286 0.488 0.574 0.145 1.206 0.183 1.88 0.112z"></path>
<path fill="#111" d="M0 24v-8h18.318v16h-18.318zM9.708 29.476c0.609-0.094 0.779-0.129 1.013-0.208 0.057-0.019 0.142-0.046 0.189-0.060 0.163-0.048 0.468-0.184 0.876-0.388 0.057-0.028 0.173-0.097 0.258-0.152s0.193-0.123 0.24-0.151c0.047-0.028 0.125-0.084 0.174-0.125s0.125-0.105 0.17-0.143c0.097-0.081 0.112-0.096 0.144-0.143 0.014-0.020 0.031-0.032 0.038-0.027 0.028 0.017 0.515-0.498 0.681-0.72 0.153-0.204 0.209-0.285 0.373-0.544 0.065-0.103 0.128-0.227 0.128-0.253 0-0.012 0.008-0.021 0.018-0.021s0.014-0.007 0.008-0.016c-0.005-0.009 0.004-0.029 0.020-0.046s0.031-0.039 0.031-0.049c0.002-0.040 0.028-0.096 0.044-0.096 0.009 0 0.012-0.008 0.006-0.017s-0.004-0.017 0.004-0.017c0.022 0 0.076-0.137 0.063-0.158-0.006-0.010-0.004-0.014 0.005-0.008 0.019 0.011 0.102-0.187 0.157-0.374 0.020-0.066 0.041-0.14 0.048-0.163s0.011-0.050 0.009-0.058c-0.002-0.008 0.005-0.025 0.016-0.039s0.014-0.024 0.007-0.024c-0.007 0-0.004-0.011 0.008-0.025 0.034-0.041 0.134-0.478 0.144-0.631 0.002-0.031 0.010-0.067 0.017-0.079 0.050-0.079 0.074-0.97 0.035-1.3-0.045-0.386-0.13-0.836-0.169-0.9-0.007-0.011-0.015-0.045-0.018-0.075-0.011-0.106-0.172-0.523-0.327-0.845-0.046-0.094-0.081-0.177-0.079-0.185s-0.006-0.013-0.017-0.013c-0.011 0-0.016-0.004-0.010-0.010 0.018-0.018-0.166-0.322-0.34-0.565-0.034-0.047-0.074-0.104-0.090-0.127-0.040-0.057-0.171-0.224-0.217-0.276-0.021-0.024-0.161-0.167-0.311-0.319-0.271-0.274-0.568-0.527-0.692-0.59-0.035-0.018-0.075-0.045-0.087-0.060s-0.074-0.056-0.136-0.090c-0.062-0.034-0.133-0.075-0.156-0.091-0.053-0.036-0.313-0.175-0.468-0.251-0.296-0.146-0.778-0.294-1.172-0.361-0.254-0.043-1.1-0.043-1.451-0.001-0.694 0.084-1.166 0.185-1.528 0.325-0.407 0.158-0.681 0.284-0.761 0.35-0.027 0.022-0.061 0.040-0.076 0.040s-0.052 0.019-0.083 0.043c-0.031 0.024-0.065 0.043-0.077 0.043-0.030 0-0.315 0.197-0.47 0.325-0.075 0.062-0.226 0.2-0.335 0.306s-0.228 0.213-0.263 0.237c-0.035 0.024-0.064 0.050-0.064 0.059s-0.067 0.087-0.148 0.175c-0.081 0.088-0.202 0.234-0.269 0.323s-0.149 0.195-0.183 0.234c-0.080 0.093-0.184 0.265-0.329 0.544-0.192 0.37-0.219 0.434-0.411 0.986-0.042 0.119-0.149 0.665-0.181 0.914-0.032 0.256-0.031 0.961 0.002 1.205 0.013 0.098 0.028 0.208 0.032 0.246 0.017 0.147 0.048 0.314 0.079 0.421 0.137 0.472 0.15 0.512 0.174 0.54 0.008 0.009 0.014 0.029 0.014 0.045 0 0.066 0.228 0.536 0.38 0.785 0.398 0.65 0.764 1.059 1.373 1.535 0.032 0.025 0.097 0.076 0.145 0.113s0.131 0.093 0.185 0.123c0.053 0.030 0.101 0.061 0.106 0.069s0.052 0.034 0.104 0.058c0.052 0.024 0.116 0.058 0.141 0.076 0.081 0.056 0.531 0.278 0.565 0.278 0.006 0 0.062 0.022 0.124 0.050 0.288 0.127 0.836 0.27 1.263 0.328 0.328 0.045 1.060 0.054 1.305 0.016zM7.906 27.988c-0.473-0.040-0.902-0.126-1.228-0.245-0.149-0.054-0.477-0.213-0.562-0.272-0.026-0.018-0.094-0.062-0.15-0.099-0.343-0.22-0.681-0.524-0.941-0.849-0.491-0.612-0.759-1.199-0.894-1.957-0.071-0.4-0.081-1.073-0.020-1.459 0.046-0.298 0.217-0.953 0.266-1.021 0.007-0.009 0.026-0.056 0.043-0.103 0.053-0.146 0.364-0.747 0.404-0.781 0.006-0.005 0.028-0.039 0.049-0.076 0.078-0.135 0.327-0.451 0.435-0.551 0.617-0.575 1.080-0.88 1.765-1.163 0.996-0.412 1.842-0.5 2.987-0.312 0.339 0.056 0.751 0.195 1.124 0.382 0.362 0.181 0.642 0.352 0.768 0.471 0.028 0.026 0.057 0.047 0.065 0.047 0.029 0 0.398 0.389 0.513 0.541 0.036 0.047 0.117 0.154 0.18 0.237s0.115 0.158 0.115 0.167c0 0.009 0.026 0.057 0.058 0.107s0.082 0.148 0.113 0.219c0.030 0.071 0.069 0.156 0.087 0.19 0.072 0.135 0.213 0.569 0.241 0.743 0.089 0.55 0.106 0.827 0.076 1.239-0.020 0.283-0.124 0.776-0.22 1.047-0.086 0.244-0.161 0.436-0.219 0.567-0.017 0.038-0.039 0.088-0.049 0.112-0.079 0.187-0.499 0.816-0.693 1.039-0.128 0.147-0.531 0.553-0.595 0.601-0.026 0.019-0.104 0.078-0.174 0.131-0.244 0.185-0.472 0.33-0.728 0.463-0.325 0.169-0.532 0.252-0.85 0.342-0.355 0.1-0.438 0.12-0.609 0.146-0.104 0.015-0.22 0.035-0.258 0.044-0.184 0.043-0.847 0.077-1.099 0.056z"></path>
<path fill="#080808" d="M0 8v-8h18.318v16h-18.318zM9.468 13.511c0.229-0.015 0.777-0.099 0.961-0.147 0.32-0.083 0.715-0.217 0.937-0.318 0.263-0.12 0.57-0.28 0.689-0.36 0.057-0.038 0.106-0.069 0.109-0.069s0.039-0.023 0.080-0.052c0.040-0.029 0.104-0.073 0.142-0.098s0.131-0.1 0.208-0.167c0.076-0.066 0.181-0.156 0.232-0.198s0.135-0.124 0.187-0.181c0.052-0.057 0.114-0.119 0.138-0.137 0.044-0.033 0.178-0.18 0.252-0.275 0.199-0.258 0.28-0.375 0.477-0.685 0.153-0.241 0.402-0.778 0.462-0.994 0.029-0.104 0.057-0.189 0.088-0.259 0.012-0.028 0.026-0.071 0.031-0.094s0.022-0.085 0.037-0.137c0.015-0.052 0.035-0.137 0.043-0.189s0.023-0.145 0.033-0.206c0.010-0.061 0.030-0.16 0.044-0.218 0.051-0.208 0.062-0.914 0.020-1.378-0.009-0.096-0.073-0.483-0.095-0.575-0.019-0.077-0.096-0.364-0.108-0.403-0.080-0.251-0.17-0.478-0.293-0.738-0.042-0.090-0.082-0.175-0.088-0.189-0.027-0.065-0.237-0.416-0.305-0.506-0.028-0.038-0.090-0.126-0.139-0.196s-0.138-0.186-0.199-0.258c-0.162-0.19-0.636-0.653-0.786-0.768-0.126-0.097-0.484-0.349-0.496-0.349-0.003 0-0.057-0.031-0.12-0.070-0.794-0.482-1.609-0.695-2.533-0.661-0.609 0.022-1.237 0.11-1.751 0.246-0.149 0.039-0.436 0.136-0.498 0.168-0.024 0.012-0.089 0.039-0.146 0.060-0.135 0.050-0.484 0.217-0.498 0.239-0.006 0.010-0.029 0.017-0.052 0.017s-0.047 0.011-0.055 0.025c-0.008 0.014-0.060 0.049-0.117 0.079s-0.135 0.081-0.174 0.112c-0.039 0.032-0.077 0.058-0.083 0.058-0.014 0-0.167 0.113-0.224 0.166-0.022 0.021-0.070 0.059-0.106 0.085s-0.096 0.075-0.135 0.108c-0.039 0.033-0.085 0.073-0.103 0.088s-0.136 0.133-0.262 0.262c-0.172 0.176-0.237 0.232-0.26 0.225-0.024-0.008-0.029-0.002-0.022 0.024 0.006 0.022-0.010 0.057-0.044 0.099-0.029 0.036-0.092 0.113-0.139 0.171s-0.086 0.111-0.086 0.117c0 0.012-0.085 0.131-0.105 0.147-0.032 0.026-0.316 0.493-0.357 0.587-0.018 0.040-0.063 0.139-0.1 0.22-0.307 0.653-0.456 1.301-0.479 2.077-0.005 0.171-0 0.401 0.011 0.532 0.011 0.127 0.020 0.259 0.019 0.292s0.006 0.083 0.015 0.112c0.009 0.028 0.020 0.075 0.024 0.103 0.028 0.19 0.051 0.306 0.079 0.403 0.137 0.472 0.15 0.512 0.174 0.54 0.008 0.009 0.014 0.029 0.014 0.045 0 0.066 0.228 0.536 0.38 0.785 0.341 0.558 0.697 0.978 1.148 1.357 0.071 0.059 0.145 0.123 0.165 0.141s0.045 0.033 0.054 0.033c0.010 0 0.020 0.006 0.023 0.013 0.010 0.023 0.217 0.174 0.313 0.228 0.051 0.029 0.103 0.064 0.114 0.078s0.028 0.025 0.037 0.025c0.009 0 0.068 0.033 0.131 0.074 0.107 0.069 0.245 0.14 0.522 0.268 0.063 0.029 0.123 0.053 0.133 0.053s0.058 0.018 0.108 0.040c0.136 0.060 0.219 0.092 0.314 0.121 0.553 0.171 0.872 0.227 1.425 0.25 0.161 0.007 0.307 0.013 0.326 0.014s0.135-0.005 0.258-0.013zM7.691 11.732c-0.042-0.013-0.080-0.018-0.082-0.009s-0.032 0.009-0.069-0.001c-0.035-0.009-0.092-0.019-0.126-0.023s-0.096-0.016-0.137-0.026c-0.041-0.010-0.11-0.026-0.152-0.035-0.093-0.019-0.4-0.114-0.472-0.145-0.195-0.086-0.575-0.279-0.616-0.312-0.027-0.022-0.074-0.051-0.104-0.064-0.070-0.029-0.233-0.146-0.233-0.166 0-0.009-0.042-0.042-0.092-0.075-0.115-0.074-0.247-0.207-0.563-0.567-0.184-0.21-0.344-0.455-0.441-0.678-0.031-0.071-0.094-0.202-0.139-0.292s-0.095-0.206-0.11-0.258c-0.117-0.405-0.14-0.504-0.183-0.777-0.035-0.219-0.031-0.962 0.006-1.189 0.104-0.639 0.288-1.177 0.582-1.7 0.28-0.498 0.439-0.696 0.856-1.066 0.593-0.526 1.074-0.81 1.835-1.083 0.519-0.187 1.139-0.278 1.752-0.257 0.594 0.020 1.102 0.125 1.595 0.332 0.522 0.218 1.033 0.579 1.37 0.967 0.198 0.228 0.21 0.243 0.326 0.42 0.062 0.095 0.126 0.188 0.143 0.207s0.036 0.054 0.042 0.077c0.007 0.024 0.026 0.058 0.043 0.077s0.047 0.085 0.068 0.146c0.021 0.061 0.060 0.165 0.088 0.229s0.050 0.127 0.050 0.139c0 0.012 0.016 0.042 0.035 0.066 0.047 0.060 0.102 0.224 0.090 0.269-0.005 0.020 0.002 0.049 0.017 0.066 0.018 0.020 0.027 0.067 0.028 0.144 0.001 0.063 0.009 0.134 0.018 0.158s0.020 0.099 0.025 0.166c0.005 0.067 0.017 0.133 0.028 0.146 0.031 0.037 0.001 0.963-0.035 1.085-0.011 0.036-0.033 0.127-0.051 0.202-0.133 0.578-0.316 1.070-0.496 1.336-0.086 0.127-0.090 0.133-0.165 0.26-0.028 0.047-0.060 0.092-0.073 0.1s-0.022 0.023-0.022 0.033c0 0.011-0.020 0.040-0.044 0.066s-0.046 0.059-0.048 0.075c-0.002 0.016-0.012 0.034-0.022 0.041s-0.049 0.058-0.088 0.114c-0.092 0.134-0.58 0.608-0.837 0.81-0.047 0.037-0.096 0.081-0.109 0.097s-0.033 0.029-0.045 0.029c-0.012 0-0.035 0.015-0.052 0.034s-0.041 0.034-0.053 0.034c-0.012 0-0.052 0.020-0.087 0.045s-0.109 0.067-0.162 0.094c-0.053 0.027-0.101 0.061-0.107 0.076s-0.023 0.027-0.039 0.027c-0.016 0-0.076 0.022-0.134 0.050-0.222 0.105-0.364 0.169-0.406 0.181-0.024 0.007-0.076 0.027-0.116 0.045s-0.086 0.033-0.101 0.033c-0.026 0-0.183 0.050-0.272 0.086-0.051 0.021-0.108 0.034-0.232 0.053-0.136 0.021-0.156 0.025-0.189 0.037-0.194 0.072-1.323 0.125-1.494 0.071z"></path>
</svg>
