<!-- Generated by IcoMoon.io -->
<svg version="1.1" xmlns="http://www.w3.org/2000/svg" width="32" height="32" viewBox="0 0 32 32">
<title>n</title>
<path fill="#8c8c8c" d="M0.078 17.376c0.075-8.043 0.203-15.073 0.285-15.622l0.148-0.997 2.037 1.813c2.531 2.253 4.149 3.77 11.781 11.051 3.34 3.186 6.108 5.758 6.151 5.715 0.064-0.064 0.925-16.604 0.924-17.756-0-0.321 0.256-0.357 2.524-0.357h2.524l0.15 8c0.201 10.709 0.074 22.071-0.249 22.394-0.188 0.188-0.509 0.019-1.424-0.749-1.703-1.43-4.43-3.882-7.702-6.925-8.284-7.704-10.459-9.593-10.73-9.322-0.286 0.286-0.559 3.981-0.786 10.638-0.116 3.412-0.233 6.219-0.259 6.239-0.068 0.050-4.684 0.501-5.134 0.501-0.361 0-0.37-0.515-0.238-14.624z"></path>
</svg>
