<!-- Generated by IcoMoon.io -->
<svg version="1.1" xmlns="http://www.w3.org/2000/svg" width="32" height="32" viewBox="0 0 32 32">
<title>x</title>
<path fill="#8c8c8c" d="M0.673 31.845c-0.335-0.079-0.637-0.29-0.672-0.469s1.107-1.921 2.536-3.871c4.252-5.801 6.799-9.379 7.127-10.015 0.295-0.571 0.279-0.647-0.368-1.714-0.372-0.614-1.718-2.555-2.99-4.314-2.817-3.893-5.788-8.346-6.146-9.21-0.387-0.934 0.047-1.282 1.73-1.389 1.142-0.073 1.492-0.005 2.499 0.487 1.68 0.819 4.288 3.513 6.345 6.557 1.608 2.378 2.491 3.314 3.127 3.314 0.593 0 2.061-1.55 4.328-4.571 2.47-3.291 3.458-4.325 4.772-4.995 1.009-0.515 3.36-0.874 4.306-0.659 0.614 0.14 0.708 0.239 0.674 0.714-0.048 0.679-1.822 3.659-3.72 6.25-2.010 2.744-4.988 7.111-5.405 7.926-0.207 0.405-0.308 0.918-0.244 1.239 0.201 1.003 1.616 3.112 5.99 8.929 2.384 3.17 4.334 5.818 4.334 5.885s-1.399 0.082-3.108 0.033c-2.329-0.066-3.264-0.171-3.73-0.417-0.872-0.46-1.966-1.709-3.936-4.492-1.957-2.765-3.594-4.632-4.064-4.632-0.448 0-1.915 1.605-4.158 4.55-3.479 4.568-3.868 4.851-6.787 4.947-1.009 0.033-2.108-0.005-2.443-0.083z"></path>
</svg>
