<svg aria-hidden="true" style="position: absolute; width: 0; height: 0; overflow: hidden;" version="1.1" xmlns="http://www.w3.org/2000/svg" xmlns:xlink="http://www.w3.org/1999/xlink">
<defs>
<symbol id="icon-n" viewBox="0 0 32 32">
<title>n</title>
<path d="M0.078 17.376c0.075-8.043 0.203-15.073 0.285-15.622l0.148-0.997 2.037 1.813c2.531 2.253 4.149 3.77 11.781 11.051 3.34 3.186 6.108 5.758 6.151 5.715 0.064-0.064 0.925-16.604 0.924-17.756-0-0.321 0.256-0.357 2.524-0.357h2.524l0.15 8c0.201 10.709 0.074 22.071-0.249 22.394-0.188 0.188-0.509 0.019-1.424-0.749-1.703-1.43-4.43-3.882-7.702-6.925-8.284-7.704-10.459-9.593-10.73-9.322-0.286 0.286-0.559 3.981-0.786 10.638-0.116 3.412-0.233 6.219-0.259 6.239-0.068 0.050-4.684 0.501-5.134 0.501-0.361 0-0.37-0.515-0.238-14.624z"></path>
</symbol>
<symbol id="icon-a1" viewBox="0 0 32 32">
<title>a1</title>
<path d="M0.947 31.828c-1.216-0.333-1.237-0.652-0.199-3.022 3.006-6.857 13.359-26.289 14.521-27.254 0.236-0.196 0.541 0.22 1.727 2.358 3.148 5.674 9.561 18.115 12.211 23.688 1.685 3.544 1.851 3.992 1.54 4.171-0.192 0.11-1.22 0.201-2.285 0.203-2.408 0.004-3.236-0.374-4.519-2.062-0.488-0.642-1.186-1.342-1.551-1.555-0.956-0.558-4.604-0.817-9.483-0.673-5.043 0.149-5.367 0.258-6.441 2.157-0.437 0.773-1.004 1.466-1.377 1.684-0.81 0.473-2.953 0.631-4.145 0.305zM17.71 22.293c1-0.278 1.088-0.705 0.565-2.74-0.468-1.82-2.155-5.379-2.701-5.699-0.277-0.162-0.464-0.097-0.853 0.299-1.013 1.030-3.175 6.038-3.175 7.354 0 0.424 0.135 0.608 0.56 0.764 0.748 0.273 4.645 0.289 5.603 0.023z"></path>
</symbol>
<symbol id="icon-m" viewBox="0 0 32 32">
<title>m</title>
<path d="M1.612 31.776c-0.496-0.097-0.986-0.26-1.088-0.362-0.398-0.398-0.587-6.873-0.505-17.246 0.061-7.668 0.157-11.029 0.332-11.571 0.135-0.42 0.291-0.764 0.345-0.764 0.511 0 3.214 2.894 7.423 7.949 3.049 3.662 6.214 7.184 6.934 7.716 0.368 0.272 0.773 0.411 0.995 0.341 0.644-0.204 4.483-4.321 8.13-8.718 4.283-5.164 6.886-7.865 7.239-7.512 0.307 0.307 0.456 14.834 0.243 23.784l-0.146 6.134-2.474 0.238c-1.361 0.131-2.589 0.237-2.729 0.235-0.199-0.002-0.255-1.672-0.255-7.663 0-4.213-0.077-7.63-0.172-7.592s-2.348 2.476-5.009 5.418c-2.66 2.943-4.906 5.35-4.991 5.35s-2.178-2.27-4.651-5.045c-2.473-2.775-4.69-5.219-4.926-5.433l-0.43-0.388v15.35l-1.682-0.022c-0.925-0.012-2.088-0.102-2.584-0.199z"></path>
</symbol>
<symbol id="icon-d" viewBox="0 0 32 32">
<title>d</title>
<path d="M0.153 20.301c0.084-6.434 0.21-13.396 0.28-15.47l0.126-3.771 2.344-0.163c3.351-0.233 9.98-0.029 11.72 0.361 3.782 0.847 6.202 2.007 8.32 3.987 2.534 2.369 3.781 5.116 4.239 9.341 0.29 2.677 0.026 5.97-0.633 7.873-1.053 3.043-3.44 5.925-6.017 7.266-3.060 1.591-5.724 1.997-14.138 2.155l-6.394 0.12zM13.778 26.539c3.576-0.539 5.391-1.747 6.662-4.435 0.948-2.004 1.286-3.919 1.158-6.551-0.265-5.422-2.283-7.741-8.011-9.207-2.088-0.534-5.513-0.762-6.655-0.442-0.791 0.221-1.136 1.047-1.401 3.345-0.26 2.258-0.367 15.365-0.132 16.202 0.35 1.248 4.093 1.734 8.379 1.088z"></path>
</symbol>
<symbol id="icon-l1" viewBox="0 0 32 32">
<title>l1</title>
<path d="M2.853 16.733v-15.267l2.678 0.261c1.473 0.144 2.699 0.287 2.724 0.318s0.24 5.688 0.477 12.57c0.237 6.882 0.46 12.543 0.495 12.578s3.425 0.146 7.533 0.244c8.686 0.209 8.658 0.203 8.439 1.801-0.175 1.277-0.433 1.655-1.304 1.903-0.935 0.267-6.685 0.546-14.877 0.723l-6.166 0.133z"></path>
</symbol>
<symbol id="icon-o" viewBox="0 0 32 32">
<title>o</title>
<path d="M11.999 31.598c-3.29-0.857-6.2-2.712-8.296-5.29-1.442-1.774-3.049-5-3.45-6.927-0.444-2.131-0.283-5.902 0.334-7.847 1.756-5.533 5.679-9.456 10.942-10.94 2.201-0.621 5.576-0.613 8.012 0.019 4.918 1.276 8.571 4.191 10.623 8.475 1.867 3.898 2.058 7.645 0.605 11.868-1.818 5.285-6.6 9.664-11.743 10.753-2.014 0.427-5.149 0.376-7.026-0.112zM17.429 26.695c3.969-1.225 6.847-3.661 7.921-6.707 1.95-5.527-0.852-12.132-5.968-14.068-1.452-0.55-4.024-0.738-5.602-0.409-3.655 0.76-7.077 3.869-8.309 7.552-0.362 1.083-0.428 1.66-0.358 3.159 0.073 1.573 0.188 2.052 0.805 3.363 1.386 2.942 3.35 5.038 5.969 6.369 2.494 1.268 3.432 1.393 5.543 0.741z"></path>
</symbol>
<symbol id="icon-g" viewBox="0 0 32 32">
<title>g</title>
<path d="M12.803 31.838c-2.833-0.484-6.439-2.545-8.713-4.981-2.579-2.762-3.873-5.973-4.068-10.101-0.222-4.693 1.227-8.572 4.389-11.746 4.169-4.186 10.481-5.656 16.138-3.757 3.056 1.026 6.474 2.999 7.252 4.187 0.225 0.343 0.288 0.696 0.194 1.073-0.166 0.662-1.681 2.137-2.577 2.508-0.564 0.234-0.735 0.205-1.678-0.279-0.578-0.296-1.639-0.906-2.358-1.356-1.97-1.23-3.324-1.681-5.385-1.794-3.208-0.175-5.564 0.83-7.911 3.372-2.694 2.919-3.545 5.874-2.711 9.423 0.689 2.934 2.707 5.832 4.993 7.171 3.311 1.94 7.528 1.926 10.585-0.035 1.253-0.804 4.080-3.772 4.080-4.284 0-0.593-1.005-0.843-6.18-1.536-2.428-0.325-3.861-0.613-4.288-0.862-0.596-0.347-0.645-0.462-0.702-1.643l-0.061-1.27 0.774-0.339c0.665-0.292 1.869-0.351 8.57-0.423l7.796-0.084v2.377c0 2.886-0.187 3.736-1.368 6.209-0.785 1.644-1.184 2.187-2.781 3.783-1.331 1.331-2.275 2.076-3.3 2.605-2.954 1.524-7.632 2.303-10.691 1.781z"></path>
</symbol>
<symbol id="icon-a2" viewBox="0 0 32 32">
<title>a2</title>
<path d="M0.481 31.601l-0.481-0.392 0.479-1.391c1.668-4.847 11.635-24.505 14.236-28.078l0.732-1.005 0.402 0.496c2.394 2.952 14.387 26.477 14.961 29.346 0.085 0.424-0.017 0.641-0.472 1.001-0.501 0.397-0.751 0.446-1.846 0.36-1.924-0.151-2.631-0.614-3.939-2.576-0.64-0.96-1.39-1.831-1.732-2.011-1.554-0.819-12.529-0.781-14.158 0.049-0.392 0.2-1.457 1.084-2.366 1.965-2.453 2.378-4.62 3.212-5.815 2.237zM17.423 21.603c1.706-0.247 1.909-0.505 1.496-1.907-0.323-1.097-2.070-4.873-2.982-6.445l-0.527-0.908-1.749 3.563c-0.962 1.96-1.803 3.895-1.869 4.302-0.103 0.633-0.051 0.777 0.362 0.998 0.432 0.232 2.066 0.5 3.437 0.564 0.28 0.013 1.104-0.062 1.831-0.167z"></path>
</symbol>
<symbol id="icon-x" viewBox="0 0 32 32">
<title>x</title>
<path d="M0.673 31.845c-0.335-0.079-0.637-0.29-0.672-0.469s1.107-1.921 2.536-3.871c4.252-5.801 6.799-9.379 7.127-10.015 0.295-0.571 0.279-0.647-0.368-1.714-0.372-0.614-1.718-2.555-2.99-4.314-2.817-3.893-5.788-8.346-6.146-9.21-0.387-0.934 0.047-1.282 1.73-1.389 1.142-0.073 1.492-0.005 2.499 0.487 1.68 0.819 4.288 3.513 6.345 6.557 1.608 2.378 2.491 3.314 3.127 3.314 0.593 0 2.061-1.55 4.328-4.571 2.47-3.291 3.458-4.325 4.772-4.995 1.009-0.515 3.36-0.874 4.306-0.659 0.614 0.14 0.708 0.239 0.674 0.714-0.048 0.679-1.822 3.659-3.72 6.25-2.010 2.744-4.988 7.111-5.405 7.926-0.207 0.405-0.308 0.918-0.244 1.239 0.201 1.003 1.616 3.112 5.99 8.929 2.384 3.17 4.334 5.818 4.334 5.885s-1.399 0.082-3.108 0.033c-2.329-0.066-3.264-0.171-3.73-0.417-0.872-0.46-1.966-1.709-3.936-4.492-1.957-2.765-3.594-4.632-4.064-4.632-0.448 0-1.915 1.605-4.158 4.55-3.479 4.568-3.868 4.851-6.787 4.947-1.009 0.033-2.108-0.005-2.443-0.083z"></path>
</symbol>
<symbol id="icon-e" viewBox="0 0 32 32">
<title>e</title>
<path d="M0.114 18.364c0.135-16.090 0.216-16.913 1.713-17.298 0.315-0.081 3.571-0.194 7.235-0.25 6.751-0.105 12.321 0.135 13.278 0.571 0.618 0.282 0.952 0.982 0.952 1.995 0 1.711-0.847 1.903-10.79 2.445l-6.025 0.328-0.11 7.991 2.705 0.13c1.488 0.071 4.793 0.191 7.346 0.265 4.114 0.12 4.63 0.172 4.55 0.461-0.050 0.179-0.152 0.922-0.227 1.65-0.183 1.787-0.456 2.161-1.773 2.431-0.99 0.203-8.744 0.615-11.725 0.623l-1.274 0.004v7.134l1.58 0.002c2.714 0.005 12.745 0.396 13.694 0.535 0.538 0.079 1.095 0.323 1.376 0.603 0.408 0.408 0.471 0.675 0.471 1.979v1.507l-6.675 0.134c-3.671 0.074-8.866 0.193-11.544 0.266l-4.869 0.132z"></path>
</symbol>
<symbol id="icon-l" viewBox="0 0 32 32">
<title>l</title>
<path d="M2.853 16.733v-15.267l2.678 0.261c1.473 0.144 2.699 0.287 2.724 0.318s0.24 5.688 0.477 12.57c0.237 6.882 0.46 12.543 0.495 12.578s3.425 0.146 7.533 0.244c8.686 0.209 8.658 0.203 8.439 1.801-0.175 1.277-0.433 1.655-1.304 1.903-0.935 0.267-6.685 0.546-14.877 0.723l-6.166 0.133z"></path>
</symbol>
<symbol id="icon-a" viewBox="0 0 32 32">
<title>a</title>
<path d="M0.663 31.814c-0.28-0.057-0.575-0.166-0.655-0.242-0.368-0.35 11.624-24.008 14.901-29.395l0.393-0.646 0.516 0.817c1.282 2.031 4.045 7.321 9.432 18.060l5.815 11.593-2.424-0.086c-3.006-0.107-3.468-0.333-4.524-2.207-0.475-0.843-0.965-1.432-1.349-1.618-0.873-0.426-5.299-0.666-9.57-0.52-5.203 0.178-5.323 0.221-7.304 2.624-0.43 0.522-1.056 1.090-1.391 1.264-0.629 0.326-2.943 0.541-3.84 0.358zM18.902 22.166c0.651-0.248 0.648-0.619-0.022-2.486-1.054-2.934-2.887-6.076-3.545-6.076-0.474 0-1.732 1.886-3.073 4.607-1.23 2.494-1.434 3.408-0.834 3.729 1.071 0.573 6.156 0.727 7.475 0.225z"></path>
</symbol>
<symbol id="icon-logo" viewBox="0 0 32 32">
<title>logo</title>
<path d="M26.8 31.774c-0.772-0.306-1.544-1.041-1.942-1.849-0.408-0.829-0.414-2.464-0.012-3.28 0.663-1.345 1.707-2.018 3.262-2.103 0.968-0.053 1.089-0.031 1.84 0.339 1.355 0.667 2.063 1.819 2.067 3.365 0.003 1.027-0.164 1.525-0.804 2.396-0.648 0.882-1.502 1.3-2.76 1.35-0.785 0.031-1.144-0.016-1.651-0.217zM28.857 30.631c1.151-0.29 2.036-1.611 1.843-2.752-0.176-1.039-1.413-2.111-2.433-2.108-0.71 0.002-1.644 0.509-2.071 1.126-0.324 0.468-0.375 0.654-0.375 1.366 0 0.716 0.049 0.893 0.376 1.348 0.386 0.537 0.836 0.869 1.42 1.045 0.471 0.142 0.588 0.14 1.241-0.024zM4.168 29.338c-0.648-0.231-1.046-0.535-1.538-1.176-0.755-0.984-0.845-2.281-0.232-3.328 1.247-2.127 4.012-2.269 5.387-0.276 0.425 0.616 0.502 0.832 0.547 1.529 0.031 0.493-0.012 0.971-0.11 1.217-0.685 1.713-2.458 2.603-4.054 2.034zM6.494 27.549c0.433-0.464 0.483-0.586 0.483-1.172 0-1.11-0.741-1.88-1.807-1.88-0.696 0-1.23 0.279-1.561 0.815-0.417 0.675-0.454 1.12-0.144 1.759 0.394 0.815 0.889 1.1 1.809 1.043 0.678-0.042 0.776-0.088 1.221-0.564zM14.818 24.875c-1.971-0.253-3.809-1.202-5.325-2.749-0.534-0.545-1.058-0.99-1.166-0.99-0.434 0-3.238-0.778-4.332-1.202-4.833-1.872-5.352-5.117-1.166-7.295 1.158-0.602 3.095-1.258 4.68-1.583l1.094-0.225 1.16-1.141c1.337-1.315 2.389-1.917 4.098-2.344 1.391-0.347 3.633-0.282 4.886 0.143 1.61 0.546 2.986 1.442 3.994 2.601l0.629 0.723 1.164 0.232c4.596 0.916 7.482 2.824 7.485 4.949 0.004 2.155-2.508 3.869-7.224 4.929l-1.379 0.31-0.988 0.996c-1.553 1.566-3.285 2.418-5.407 2.661-0.6 0.069-1.146 0.118-1.215 0.11s-0.513-0.065-0.986-0.125zM17.995 23.43c0.844-0.23 2.187-0.922 2.764-1.422l0.428-0.372-1.44 0.094c-1.893 0.124-6.809 0.088-8.067-0.060l-0.993-0.116 0.469 0.405c0.524 0.453 1.881 1.19 2.645 1.436 1.154 0.372 2.906 0.386 4.194 0.035zM19.873 20.374c3.719-0.34 6.789-1.091 8.827-2.16 0.922-0.484 1.876-1.404 1.974-1.904 0.109-0.558-0.296-1.35-0.93-1.816-1.078-0.794-3.185-1.646-5.078-2.053l-0.404-0.087 0.138 0.416c0.184 0.554 0.272 0.625 1.295 1.047 0.482 0.199 1.113 0.58 1.402 0.846 1.717 1.581 0.397 3.273-3.28 4.203-2.32 0.587-3.654 0.706-7.825 0.7-3.469-0.005-4.147-0.039-5.634-0.284-1.913-0.315-3.487-0.761-4.513-1.279-2.445-1.234-2.106-3.22 0.73-4.27 0.788-0.292 0.86-0.364 1.088-1.096 0.090-0.288 0.076-0.295-0.39-0.208-0.83 0.155-2.828 0.832-3.613 1.225-1.135 0.568-1.921 1.193-2.209 1.758-0.222 0.435-0.239 0.575-0.12 0.972 0.613 2.047 6.084 3.849 12.471 4.108 2.37 0.096 4.104 0.062 6.072-0.117zM20.75 18.069c2.571-0.37 2.729-0.418 2.833-0.86 0.151-0.642 0.081-2.254-0.134-3.094-0.353-1.376-0.915-2.34-2.009-3.44-1.599-1.608-3.229-2.303-5.41-2.307-1.375-0.002-2.148 0.173-3.418 0.777-1.917 0.912-3.522 2.874-4.073 4.98-0.221 0.844-0.289 2.405-0.136 3.080 0.097 0.426 0.345 0.514 2.268 0.804 2.642 0.398 7.53 0.427 10.079 0.060zM7.040 16.003c0-0.62-0.017-1.127-0.038-1.127-0.327-0.002-1.527 0.934-1.527 1.191 0 0.267 1.055 1.042 1.44 1.058 0.075 0.003 0.125-0.451 0.125-1.122zM25.95 16.677c0.762-0.5 0.655-0.995-0.322-1.49l-0.622-0.315v2.252l0.312-0.119c0.172-0.065 0.456-0.213 0.631-0.328zM26.634 8.237c-0.869-0.153-1.515-0.648-1.939-1.487-0.327-0.646-0.216-1.8 0.238-2.48 0.418-0.627 1.391-1.162 2.11-1.162 0.802 0 1.678 0.457 2.134 1.114 0.359 0.518 0.4 0.668 0.4 1.473 0 0.795-0.043 0.958-0.377 1.434-0.61 0.868-1.571 1.283-2.565 1.109zM28.040 6.582c0.245-0.318 0.291-1.109 0.087-1.49-0.185-0.345-0.933-0.64-1.377-0.542-0.496 0.109-0.992 0.731-0.992 1.243 0 1.123 1.599 1.676 2.282 0.79zM1.906 6.068c-0.649-0.302-1.274-0.914-1.652-1.617-0.298-0.554-0.298-2.010 0-2.563 1.415-2.628 4.767-2.485 5.947 0.255 0.194 0.451 0.194 1.603 0 2.054-0.356 0.827-0.9 1.419-1.644 1.791-0.945 0.472-1.756 0.497-2.651 0.080zM4.505 4.371c0.428-0.458 0.47-0.565 0.47-1.212 0-0.671-0.030-0.74-0.547-1.257-0.541-0.541-0.757-0.616-1.582-0.549-0.52 0.042-1.094 0.482-1.368 1.048-0.323 0.668-0.324 0.87-0.003 1.533 0.607 1.255 2.069 1.465 3.030 0.437z"></path>
</symbol>


<symbol id="icon-square" viewBox="0 0 32 32">
<title>square</title>
<rect width="116" height="118"/>
</symbol>

<symbol id="icon-lightning" viewBox="0 0 32 32">
<title>lightning</title>
<polygon points="377.585,350.552 336.667,412.072 354.573,412.072 347.434,463.749 390.085,403.049 372.042,398.762  
    "/>
</symbol>

<symbol id="icon-" viewBox="0 0 32 32">
<title></title>
<path ></path>
</symbol>

<symbol id="icon-" viewBox="0 0 32 32">
<title></title>
<path ></path>
</symbol>

<symbol id="icon-" viewBox="0 0 32 32">
<title></title>
<path ></path>
</symbol>

<symbol id="icon-" viewBox="0 0 32 32">
<title></title>
<path ></path>
</symbol>
</defs>
</svg>
